<?xml version="1.0" standalone="no"?>
<!DOCTYPE svg PUBLIC "-//W3C//DTD SVG 20010904//EN"
 "http://www.w3.org/TR/2001/REC-SVG-20010904/DTD/svg10.dtd">
<svg version="1.0" xmlns="http://www.w3.org/2000/svg"
 width="249.000000pt" height="83.000000pt" viewBox="0 0 249.000000 83.000000"
 preserveAspectRatio="xMidYMid meet">

<g transform="translate(0.000000,83.000000) scale(0.100000,-0.100000)"
fill="#000000" stroke="none">
<path d="M16 773 c3 -16 22 -53 43 -83 75 -113 187 -140 363 -86 101 31 125
50 50 40 -56 -7 -181 15 -269 47 -30 12 -84 41 -120 65 -36 24 -67 44 -70 44
-2 0 -1 -12 3 -27z"/>
<path d="M2399 782 c-20 -2 -31 -13 -45 -43 -18 -42 -87 -110 -136 -135 -26
-13 -28 -19 -28 -75 l0 -61 28 7 c15 3 50 24 77 45 l50 39 3 -265 2 -265 63 3
62 3 2 350 c1 193 -1 360 -3 371 -4 23 -29 31 -75 26z"/>
<path d="M680 716 c-19 -7 -53 -22 -75 -34 l-40 -23 35 8 c70 16 127 10 154
-16 75 -71 19 -241 -80 -241 -39 0 -38 -3 -23 105 6 42 8 79 6 81 -10 10 -174
-74 -181 -92 -4 -11 -16 -93 -27 -184 -11 -91 -24 -180 -29 -199 -5 -19 -8
-36 -7 -37 5 -5 166 9 175 15 6 4 18 60 27 126 22 166 16 155 83 155 120 1
174 24 220 91 21 29 23 44 20 106 -4 77 -22 109 -80 139 -33 17 -131 18 -178
0z"/>
<path d="M1944 613 c-23 -105 -36 -125 -96 -151 -38 -16 -40 -62 -3 -62 l25 0
0 -136 c0 -152 10 -188 59 -217 37 -22 105 -22 141 0 15 9 38 34 51 56 21 39
21 41 4 54 -27 19 -33 17 -50 -16 -19 -38 -32 -46 -50 -31 -12 10 -15 42 -15
151 l0 139 34 0 c37 0 62 21 52 45 -3 10 -19 15 -45 15 l-40 0 -3 88 c-3 86
-3 87 -30 90 -23 3 -28 -1 -34 -25z"/>
<path d="M1530 472 c-43 -21 -70 -67 -70 -119 0 -53 37 -98 127 -155 84 -53
100 -108 32 -108 -35 0 -73 34 -95 86 -12 27 -20 35 -37 32 -20 -3 -22 -9 -25
-82 l-3 -78 38 4 c21 3 52 -1 70 -9 18 -7 53 -13 79 -13 41 0 51 5 86 40 40
40 40 41 36 102 -4 60 -6 63 -57 109 -28 25 -67 55 -86 65 -39 21 -50 40 -34
60 26 32 84 6 117 -51 9 -16 14 -18 29 -9 14 9 18 24 18 75 0 55 -3 64 -19 67
-11 2 -25 -3 -31 -12 -10 -12 -19 -14 -41 -7 -58 18 -100 19 -134 3z"/>
<path d="M1111 458 c-72 -38 -111 -107 -111 -197 0 -136 73 -223 199 -238 56
-6 120 18 164 63 48 48 51 61 20 77 -25 14 -28 13 -63 -24 -31 -33 -43 -39
-77 -39 -47 0 -66 18 -82 75 -21 77 -26 74 117 77 l127 3 -1 41 c-1 53 -38
128 -77 156 -48 34 -156 37 -216 6z m143 -54 c9 -8 16 -31 16 -50 l0 -34 -55
0 c-53 0 -55 1 -55 28 0 60 57 94 94 56z"/>
<path d="M685 357 c10 -7 32 -24 47 -39 24 -23 28 -34 28 -81 0 -30 -6 -70
-14 -88 -30 -71 -75 -89 -241 -98 -95 -5 -138 -12 -160 -25 -29 -16 -22 -17
194 -11 250 7 308 20 355 75 50 60 53 192 6 235 -31 28 -91 44 -165 44 -59 0
-67 -2 -50 -12z"/>
</g>
</svg>
