<?xml version="1.0" standalone="no"?>
<!DOCTYPE svg PUBLIC "-//W3C//DTD SVG 20010904//EN"
 "http://www.w3.org/TR/2001/REC-SVG-20010904/DTD/svg10.dtd">
<svg version="1.0" xmlns="http://www.w3.org/2000/svg"
 width="350.000000pt" height="90.000000pt" viewBox="0 0 350.000000 90.000000"
 preserveAspectRatio="xMidYMid meet">

<g transform="translate(0.000000,90.000000) scale(0.100000,-0.100000)"
fill="#000000" stroke="none">
<path d="M16 843 c20 -81 78 -154 156 -192 50 -25 74 -31 128 -31 69 0 201 33
255 64 l30 17 -60 -6 c-122 -13 -321 48 -454 139 -29 20 -55 36 -57 36 -2 0
-1 -12 2 -27z"/>
<path d="M2936 803 c-26 -52 -94 -121 -144 -147 -23 -12 -33 -26 -38 -51 -7
-41 3 -105 17 -105 18 0 65 28 110 66 l44 37 6 -294 c3 -162 6 -295 7 -296 4
-6 88 -3 110 3 l22 6 -2 412 -3 411 -52 3 -52 3 -25 -48z"/>
<path d="M725 764 c-58 -25 -117 -66 -70 -50 67 24 101 28 139 14 57 -19 79
-55 79 -125 -1 -100 -35 -153 -108 -167 -53 -11 -57 0 -44 103 6 50 9 94 6 97
-11 12 -171 -62 -189 -87 -13 -18 -23 -71 -38 -209 -12 -102 -25 -202 -31
-224 -6 -21 -9 -40 -7 -42 2 -1 45 0 96 3 76 5 95 9 103 24 5 11 16 74 25 141
21 177 15 168 126 168 107 0 149 18 202 83 29 36 31 45 31 116 0 70 -3 81 -29
115 -37 49 -79 66 -163 66 -50 -1 -84 -8 -128 -26z"/>
<path d="M2166 678 c-2 -7 -9 -33 -16 -58 -20 -75 -38 -100 -86 -121 -34 -16
-44 -25 -44 -43 0 -18 8 -27 30 -35 l30 -10 0 -148 c0 -125 3 -154 18 -182 27
-50 75 -73 141 -68 47 3 59 9 87 40 43 46 54 85 29 104 -27 19 -35 16 -47 -17
-12 -36 -41 -55 -56 -37 -5 6 -13 80 -17 164 l-8 152 24 5 c13 3 35 7 49 8 19
2 25 9 25 28 0 22 -5 26 -45 30 l-45 5 -3 98 -3 97 -30 0 c-16 0 -31 -6 -33
-12z"/>
<path d="M1280 508 c-81 -23 -154 -104 -166 -185 -15 -104 15 -204 80 -261 43
-38 136 -66 189 -58 52 9 119 49 151 91 30 39 33 60 10 69 -29 11 -42 6 -82
-34 -33 -33 -46 -40 -80 -40 -32 0 -45 6 -65 29 -24 29 -44 111 -32 131 4 6
61 10 140 10 148 0 151 1 139 69 -26 144 -145 219 -284 179z m104 -71 c19 -14
39 -88 27 -100 -4 -4 -35 -7 -67 -5 l-59 3 4 30 c4 41 18 65 44 75 30 12 31
12 51 -3z"/>
<path d="M1710 513 c-31 -11 -80 -68 -86 -100 -11 -61 4 -102 57 -154 28 -27
55 -49 60 -49 19 0 86 -51 97 -74 14 -31 -2 -56 -37 -56 -38 0 -75 31 -101 85
-19 39 -26 45 -52 45 l-30 0 3 -84 c2 -46 8 -88 12 -92 4 -5 20 -3 36 2 22 9
37 7 72 -7 86 -35 162 -16 207 51 20 29 23 45 20 93 -4 52 -9 62 -47 101 -23
23 -66 58 -96 77 -58 36 -74 61 -55 84 22 26 60 17 96 -21 19 -19 34 -40 34
-45 0 -6 10 -9 23 -7 20 3 22 9 25 81 3 76 3 77 -22 77 -14 0 -29 -7 -33 -15
-7 -12 -14 -12 -48 0 -40 14 -107 18 -135 8z"/>
<path d="M770 373 c64 -46 70 -58 70 -133 0 -92 -24 -141 -83 -171 -34 -18
-67 -23 -182 -29 -92 -5 -152 -12 -175 -23 -33 -15 -23 -15 190 -16 247 -1
317 9 376 54 65 50 94 168 60 249 -23 56 -73 78 -185 83 -94 4 -96 3 -71 -14z"/>
<path d="M2442 358 c-6 -6 -12 -20 -12 -29 0 -33 25 -40 130 -37 85 3 105 6
114 21 8 12 8 22 0 35 -9 14 -29 17 -115 20 -73 2 -108 -1 -117 -10z"/>
</g>
</svg>
