<svg xmlns="http://www.w3.org/2000/svg" width="246.526" height="78.838" viewBox="0 0 246.526 78.838">
  <g id="logo" transform="translate(-1.2 80)">
    <path id="Path_1" data-name="Path 1" d="M1.6-77.3C1.9-75.7,3.8-72,5.9-69c7.5,11.3,18.7,14,36.3,8.6,10.1-3.1,12.5-5,5-4-5.6.7-18.1-1.5-26.9-4.7a80.545,80.545,0,0,1-12-6.5,71.43,71.43,0,0,0-7-4.4C1.1-80,1.2-78.8,1.6-77.3Z" fill="#fff"/>
    <path id="Path_2" data-name="Path 2" d="M239.9-78.2c-2,.2-3.1,1.3-4.5,4.3-1.8,4.2-8.7,11-13.6,13.5-2.6,1.3-2.8,1.9-2.8,7.5v6.1l2.8-.7c1.5-.3,5-2.4,7.7-4.5l5-3.9.3,26.5L235-2.9l6.3-.3,6.2-.3.2-35c.1-19.3-.1-36-.3-37.1C247-77.9,244.5-78.7,239.9-78.2Z" fill="#fff"/>
    <path id="Path_3" data-name="Path 3" d="M68-71.6a68.112,68.112,0,0,0-7.5,3.4l-4,2.3,3.5-.8c7-1.6,12.7-1,15.4,1.6C82.9-58,77.3-41,67.4-41c-3.9,0-3.8.3-2.3-10.5.6-4.2.8-7.9.6-8.1-1-1-17.4,7.4-18.1,9.2-.4,1.1-1.6,9.3-2.7,18.4S42.5-14,42-12.1a16,16,0,0,0-.7,3.7c.5.5,16.6-.9,17.5-1.5.6-.4,1.8-6,2.7-12.6C63.7-39.1,63.1-38,69.8-38c12-.1,17.4-2.4,22-9.1,2.1-2.9,2.3-4.4,2-10.6-.4-7.7-2.2-10.9-8-13.9C82.5-73.3,72.7-73.4,68-71.6Z" fill="#fff"/>
    <path id="Path_4" data-name="Path 4" d="M194.4-61.3c-2.3,10.5-3.6,12.5-9.6,15.1-3.8,1.6-4,6.2-.3,6.2H187v13.6c0,15.2,1,18.8,5.9,21.7,3.7,2.2,10.5,2.2,14.1,0a18.759,18.759,0,0,0,5.1-5.6c2.1-3.9,2.1-4.1.4-5.4-2.7-1.9-3.3-1.7-5,1.6-1.9,3.8-3.2,4.6-5,3.1-1.2-1-1.5-4.2-1.5-15.1V-40h3.4c3.7,0,6.2-2.1,5.2-4.5-.3-1-1.9-1.5-4.5-1.5h-4l-.3-8.8c-.3-8.6-.3-8.7-3-9C195.5-64.1,195-63.7,194.4-61.3Z" fill="#fff"/>
    <path id="Path_5" data-name="Path 5" d="M153-47.2a13.02,13.02,0,0,0-7,11.9c0,5.3,3.7,9.8,12.7,15.5,8.4,5.3,10,10.8,3.2,10.8-3.5,0-7.3-3.4-9.5-8.6-1.2-2.7-2-3.5-3.7-3.2-2,.3-2.2.9-2.5,8.2l-.3,7.8,3.8-.4a14.91,14.91,0,0,1,7,.9A26.088,26.088,0,0,0,164.6-3c4.1,0,5.1-.5,8.6-4,4-4,4-4.1,3.6-10.2-.4-6-.6-6.3-5.7-10.9a58.6,58.6,0,0,0-8.6-6.5c-3.9-2.1-5-4-3.4-6,2.6-3.2,8.4-.6,11.7,5.1.9,1.6,1.4,1.8,2.9.9,1.4-.9,1.8-2.4,1.8-7.5,0-5.5-.3-6.4-1.9-6.7a3.279,3.279,0,0,0-3.1,1.2c-1,1.2-1.9,1.4-4.1.7C160.6-48.7,156.4-48.8,153-47.2Z" fill="#fff"/>
    <path id="Path_6" data-name="Path 6" d="M111.1-45.8C103.9-42,100-35.1,100-26.1c0,13.6,7.3,22.3,19.9,23.8,5.6.6,12-1.8,16.4-6.3,4.8-4.8,5.1-6.1,2-7.7-2.5-1.4-2.8-1.3-6.3,2.4-3.1,3.3-4.3,3.9-7.7,3.9-4.7,0-6.6-1.8-8.2-7.5-2.1-7.7-2.6-7.4,11.7-7.7l12.7-.3-.1-4.1c-.1-5.3-3.8-12.8-7.7-15.6C127.9-48.6,117.1-48.9,111.1-45.8Zm14.3,5.4c.9.8,1.6,3.1,1.6,5V-32h-5.5c-5.3,0-5.5-.1-5.5-2.8C116-40.8,121.7-44.2,125.4-40.4Z" fill="#fff"/>
    <path id="Path_7" data-name="Path 7" d="M68.5-35.7a41.5,41.5,0,0,1,4.7,3.9c2.4,2.3,2.8,3.4,2.8,8.1a27.017,27.017,0,0,1-1.4,8.8c-3,7.1-7.5,8.9-24.1,9.8-9.5.5-13.8,1.2-16,2.5C31.6-1,32.3-.9,53.9-1.5c25-.7,30.8-2,35.5-7.5,5-6,5.3-19.2.6-23.5-3.1-2.8-9.1-4.4-16.5-4.4C67.6-36.9,66.8-36.7,68.5-35.7Z" fill="#fff"/>
  </g>
</svg>
