<svg width="409" height="116" viewBox="0 0 409 116" fill="none" xmlns="http://www.w3.org/2000/svg">
<path d="M1.13332 3.60001C3.79999 14.4 11.5333 24.1333 21.9333 29.2C28.6 32.5333 31.8 33.3333 39 33.3333C48.2 33.3333 65.8 28.9333 73 24.8L77 22.5333L69 23.3333C52.7333 25.0667 26.2 16.9333 8.46666 4.80001C4.59999 2.13334 1.13332 8.43406e-06 0.866656 8.43406e-06C0.59999 8.43406e-06 0.733323 1.60001 1.13332 3.60001Z" fill="white"/>
<path d="M390.467 8.93335C387 15.8667 377.933 25.0667 371.267 28.5334C368.2 30.1334 366.867 32 366.2 35.3334C365.267 40.8 366.6 49.3334 368.467 49.3334C370.867 49.3334 377.133 45.6 383.133 40.5334L389 35.6L389.8 74.8C390.2 96.4 390.6 114.133 390.733 114.267C391.267 115.067 402.467 114.667 405.4 113.867L408.333 113.067L408.067 58.1334L407.667 3.33335L400.733 2.93335L393.8 2.53335L390.467 8.93335Z" fill="white"/>
<path d="M95.6667 14.1334C87.9333 17.4667 80.0667 22.9334 86.3333 20.8C95.2667 17.6 99.8 17.0667 104.867 18.9334C112.467 21.4667 115.4 26.2667 115.4 35.6C115.267 48.9334 110.733 56 101 57.8667C93.9333 59.3334 93.4 57.8667 95.1333 44.1334C95.9333 37.4667 96.3333 31.6 95.9333 31.2C94.4667 29.6 73.1333 39.4667 70.7333 42.8C69 45.2 67.6667 52.2667 65.6667 70.6667C64.0667 84.2667 62.3333 97.6 61.5333 100.533C60.7333 103.333 60.3333 105.867 60.6 106.133C60.8667 106.267 66.6 106.133 73.4 105.733C83.5333 105.067 86.0667 104.533 87.1333 102.533C87.8 101.067 89.2667 92.6667 90.4667 83.7334C93.2667 60.1334 92.4667 61.3334 107.267 61.3334C121.533 61.3334 127.133 58.9334 134.2 50.2667C138.067 45.4667 138.333 44.2667 138.333 34.8C138.333 25.4667 137.933 24 134.467 19.4667C129.533 12.9334 123.933 10.6667 112.733 10.6667C106.067 10.8 101.533 11.7334 95.6667 14.1334Z" fill="white"/>
<path d="M287.8 25.6C287.533 26.5333 286.6 30 285.667 33.3333C283 43.3333 280.6 46.6667 274.2 49.4667C269.667 51.6 268.333 52.8 268.333 55.2C268.333 57.6 269.4 58.8 272.333 59.8667L276.333 61.2V80.9333C276.333 97.6 276.733 101.467 278.733 105.2C282.333 111.867 288.733 114.933 297.533 114.267C303.8 113.867 305.4 113.067 309.133 108.933C314.867 102.8 316.333 97.6 313 95.0667C309.4 92.5333 308.333 92.9333 306.733 97.3333C305.133 102.133 301.267 104.667 299.267 102.267C298.6 101.467 297.533 91.6 297 80.4L295.933 60.1333L299.133 59.4667C300.867 59.0667 303.8 58.5333 305.667 58.4C308.2 58.1333 309 57.2 309 54.6667C309 51.7333 308.333 51.2 303 50.6667L297 50L296.6 36.9333L296.2 24H292.2C290.067 24 288.067 24.8 287.8 25.6Z" fill="white"/>
<path d="M169.667 48.2667C158.867 51.3334 149.133 62.1334 147.533 72.9334C145.533 86.8 149.533 100.133 158.2 107.733C163.933 112.8 176.333 116.533 183.4 115.467C190.333 114.267 199.267 108.933 203.533 103.333C207.533 98.1334 207.933 95.3334 204.867 94.1334C201 92.6667 199.267 93.3334 193.933 98.6667C189.533 103.067 187.8 104 183.267 104C179 104 177.267 103.2 174.6 100.133C171.4 96.2667 168.733 85.3334 170.333 82.6667C170.867 81.8667 178.467 81.3334 189 81.3334C208.733 81.3334 209.133 81.2 207.533 72.1334C204.067 52.9334 188.2 42.9334 169.667 48.2667ZM183.533 57.7334C186.067 59.6 188.733 69.4667 187.133 71.0667C186.6 71.6 182.467 72 178.2 71.7334L170.333 71.3334L170.867 67.3334C171.4 61.8667 173.267 58.6667 176.733 57.3334C180.733 55.7334 180.867 55.7334 183.533 57.7334Z" fill="white"/>
<path d="M227 47.6C222.867 49.0667 216.333 56.6667 215.533 60.9333C214.067 69.0667 216.067 74.5333 223.133 81.4667C226.867 85.0667 230.467 88 231.133 88C233.667 88 242.6 94.8 244.067 97.8667C245.933 102 243.8 105.333 239.133 105.333C234.067 105.333 229.133 101.2 225.667 94C223.133 88.8 222.2 88 218.733 88H214.733L215.133 99.2C215.4 105.333 216.2 110.933 216.733 111.467C217.267 112.133 219.4 111.867 221.533 111.2C224.467 110 226.467 110.267 231.133 112.133C242.6 116.8 252.733 114.267 258.733 105.333C261.4 101.467 261.8 99.3333 261.4 92.9333C260.867 86 260.2 84.6667 255.133 79.4667C252.067 76.4 246.333 71.7333 242.333 69.2C234.6 64.4 232.467 61.0667 235 58C237.933 54.5333 243 55.7333 247.8 60.8C250.333 63.3333 252.333 66.1333 252.333 66.8C252.333 67.6 253.667 68 255.4 67.7333C258.067 67.3333 258.333 66.5333 258.733 56.9333C259.133 46.8 259.133 46.6667 255.8 46.6667C253.933 46.6667 251.933 47.6 251.4 48.6667C250.467 50.2667 249.533 50.2667 245 48.6667C239.667 46.8 230.733 46.2667 227 47.6Z" fill="white"/>
<path d="M101.667 66.2667C110.2 72.4 111 74 111 84C111 96.2667 107.8 102.8 99.9333 106.8C95.4 109.2 91 109.867 75.6667 110.667C63.4 111.333 55.4 112.267 52.3333 113.733C47.9333 115.733 49.2667 115.733 77.6667 115.867C110.6 116 119.933 114.667 127.8 108.667C136.467 102 140.333 86.2667 135.8 75.4667C132.733 68 126.067 65.0667 111.133 64.4C98.6 63.8667 98.3333 64 101.667 66.2667Z" fill="white"/>
<path d="M324.6 68.2667C323.8 69.0667 323 70.9333 323 72.1333C323 76.5333 326.333 77.4667 340.333 77.0667C351.667 76.6667 354.333 76.2667 355.533 74.2667C356.6 72.6667 356.6 71.3333 355.533 69.6C354.333 67.7333 351.667 67.3333 340.2 66.9333C330.467 66.6667 325.8 67.0667 324.6 68.2667Z" fill="white"/>
</svg>
